# xmcd
#
# Track frame offsets:
#	150
#	16207
#	37457
#	57095
#	73230
#	87630
#	105985
#	124445
#	139790
#	157995
#
# Disc length: 2417 seconds
#
# Revision: 1
# Processed by: cddbd v1.5.1PL0 Copyright (c) Steve Scherf et al.
# Submitted via: audiograbber 1.83.01
#
DISCID=8e096f0a
DTITLE=Jess Tardy - Hold On
DYEAR=2004
DGENRE=
TTITLE0=Won't Let You Go
TTITLE1=Hold On
TTITLE2=Maybe Forever
TTITLE3=The Only One
TTITLE4=Don't Ever Stop Loving Me
TTITLE5=It's a Pity
TTITLE6=Back Around
TTITLE7=In Blue
TTITLE8=Dreamer
TTITLE9=Jealous Kind
EXTD=
EXTT0=
EXTT1=
EXTT2=
EXTT3=
EXTT4=
EXTT5=
EXTT6=
EXTT7=
EXTT8=
EXTT9=
PLAYORDER=
